<svg aria-hidden="true" style="position: absolute; width: 0; height: 0; overflow: hidden;" version="1.1" xmlns="http://www.w3.org/2000/svg" xmlns:xlink="http://www.w3.org/1999/xlink">
<defs>
<symbol id="icon-uinstagram" viewBox="0 0 33 32">
<path d="M23.787 7.28c-0.316 0-0.626 0.094-0.889 0.27s-0.468 0.426-0.589 0.718c-0.121 0.292-0.153 0.614-0.091 0.924s0.214 0.595 0.438 0.819c0.224 0.224 0.509 0.376 0.819 0.438s0.632 0.030 0.924-0.091c0.292-0.121 0.542-0.326 0.718-0.589s0.27-0.572 0.27-0.889c0-0.424-0.169-0.831-0.469-1.131s-0.707-0.469-1.131-0.469zM29.92 10.507c-0.026-1.106-0.233-2.201-0.613-3.24-0.339-0.889-0.867-1.694-1.547-2.36-0.66-0.683-1.467-1.208-2.36-1.533-1.036-0.392-2.132-0.604-3.24-0.627-1.413-0.080-1.867-0.080-5.493-0.080s-4.080 0-5.493 0.080c-1.108 0.023-2.204 0.235-3.24 0.627-0.891 0.329-1.697 0.853-2.36 1.533-0.683 0.66-1.208 1.467-1.533 2.36-0.392 1.036-0.604 2.132-0.627 3.24-0.080 1.413-0.080 1.867-0.080 5.493s0 4.080 0.080 5.493c0.023 1.108 0.235 2.204 0.627 3.24 0.326 0.893 0.85 1.7 1.533 2.36 0.663 0.681 1.469 1.205 2.36 1.533 1.036 0.392 2.132 0.604 3.24 0.627 1.413 0.080 1.867 0.080 5.493 0.080s4.080 0 5.493-0.080c1.108-0.023 2.204-0.235 3.24-0.627 0.893-0.326 1.7-0.85 2.36-1.533 0.683-0.663 1.211-1.469 1.547-2.36 0.38-1.039 0.587-2.134 0.613-3.24 0-1.413 0.080-1.867 0.080-5.493s0-4.080-0.080-5.493zM27.52 21.333c-0.010 0.846-0.163 1.685-0.453 2.48-0.213 0.58-0.555 1.105-1 1.533-0.433 0.441-0.956 0.782-1.533 1-0.795 0.29-1.634 0.444-2.48 0.453-1.333 0.067-1.827 0.080-5.333 0.080s-4 0-5.333-0.080c-0.879 0.016-1.754-0.119-2.587-0.4-0.552-0.229-1.052-0.57-1.467-1-0.443-0.428-0.78-0.953-0.987-1.533-0.326-0.806-0.506-1.664-0.533-2.533 0-1.333-0.080-1.827-0.080-5.333s0-4 0.080-5.333c0.006-0.865 0.164-1.723 0.467-2.533 0.235-0.563 0.595-1.064 1.053-1.467 0.405-0.458 0.906-0.823 1.467-1.067 0.813-0.293 1.669-0.447 2.533-0.453 1.333 0 1.827-0.080 5.333-0.080s4 0 5.333 0.080c0.846 0.010 1.685 0.163 2.48 0.453 0.606 0.225 1.15 0.59 1.587 1.067 0.437 0.41 0.778 0.91 1 1.467 0.296 0.812 0.45 1.669 0.453 2.533 0.067 1.333 0.080 1.827 0.080 5.333s-0.013 4-0.080 5.333zM16.667 9.16c-1.352 0.003-2.673 0.406-3.796 1.159s-1.998 1.822-2.513 3.072c-0.516 1.25-0.649 2.625-0.384 3.951s0.918 2.543 1.875 3.499c0.957 0.955 2.176 1.605 3.502 1.868s2.701 0.127 3.95-0.391c1.249-0.518 2.317-1.395 3.067-2.519s1.152-2.446 1.152-3.799c0.002-0.9-0.174-1.791-0.518-2.623s-0.849-1.587-1.486-2.223-1.393-1.139-2.225-1.482c-0.832-0.342-1.724-0.517-2.624-0.513zM16.667 20.44c-0.878 0-1.737-0.26-2.467-0.748s-1.299-1.181-1.635-1.993c-0.336-0.811-0.424-1.704-0.253-2.565s0.594-1.652 1.215-2.273c0.621-0.621 1.412-1.044 2.273-1.215s1.754-0.083 2.565 0.253c0.811 0.336 1.505 0.905 1.993 1.635s0.748 1.589 0.748 2.467c0 0.583-0.115 1.16-0.338 1.699s-0.55 1.028-0.962 1.441c-0.412 0.412-0.902 0.739-1.441 0.962s-1.116 0.338-1.699 0.338z"></path>
</symbol>
<symbol id="icon-utwitter" viewBox="0 0 33 32">
<path d="M31.322 5.267c0-0.236-0.062-0.467-0.181-0.67s-0.289-0.372-0.493-0.489-0.437-0.177-0.672-0.174c-0.235 0.002-0.466 0.067-0.669 0.188-0.78 0.465-1.621 0.82-2.497 1.057-1.252-1.074-2.849-1.662-4.499-1.656-1.81 0.002-3.548 0.707-4.848 1.967s-2.059 2.975-2.117 4.784c-3.568-0.569-6.802-2.431-9.085-5.232-0.138-0.167-0.313-0.298-0.512-0.383s-0.415-0.12-0.631-0.104c-0.216 0.018-0.423 0.088-0.606 0.204s-0.334 0.275-0.441 0.463c-0.55 0.96-0.866 2.036-0.922 3.14s0.149 2.207 0.599 3.218l-0.003 0.003c-0.202 0.125-0.369 0.299-0.485 0.506s-0.176 0.441-0.175 0.679c-0.002 0.196 0.009 0.392 0.035 0.586 0.136 1.678 0.88 3.248 2.091 4.417-0.082 0.157-0.132 0.328-0.148 0.504s0.005 0.354 0.059 0.522c0.528 1.645 1.651 3.035 3.15 3.896-1.522 0.589-3.166 0.794-4.786 0.598-0.3-0.038-0.604 0.028-0.862 0.185s-0.454 0.398-0.558 0.683c-0.103 0.284-0.107 0.595-0.010 0.881s0.288 0.531 0.542 0.695c2.787 1.795 6.032 2.749 9.346 2.749 3.759 0.042 7.427-1.159 10.432-3.417s5.181-5.446 6.187-9.068c0.471-1.578 0.711-3.215 0.714-4.862 0-0.087 0-0.177-0.001-0.267 0.696-0.751 1.235-1.633 1.586-2.595s0.506-1.984 0.457-3.007zM26.913 9.55c-0.22 0.26-0.332 0.596-0.311 0.936 0.013 0.22 0.012 0.441 0.012 0.65-0.003 1.391-0.207 2.775-0.605 4.108-0.822 3.082-2.654 5.799-5.204 7.715s-5.668 2.923-8.857 2.856c-1.146 0-2.287-0.134-3.401-0.401 1.421-0.458 2.749-1.164 3.923-2.085 0.216-0.17 0.375-0.403 0.453-0.667s0.074-0.546-0.014-0.807-0.254-0.488-0.477-0.651c-0.222-0.163-0.489-0.252-0.764-0.257-1.108-0.017-2.166-0.464-2.952-1.246 0.199-0.038 0.397-0.085 0.594-0.141 0.288-0.082 0.54-0.259 0.716-0.501s0.264-0.537 0.252-0.836-0.125-0.586-0.32-0.813c-0.195-0.227-0.461-0.383-0.754-0.441-0.643-0.127-1.249-0.401-1.769-0.8s-0.942-0.913-1.231-1.501c0.241 0.033 0.483 0.053 0.727 0.061 0.289 0.004 0.571-0.083 0.807-0.25s0.412-0.405 0.504-0.678c0.088-0.276 0.083-0.574-0.013-0.847s-0.279-0.508-0.521-0.668c-0.586-0.391-1.067-0.921-1.398-1.543s-0.503-1.316-0.5-2.021c0-0.089 0.003-0.177 0.008-0.264 2.988 2.787 6.864 4.43 10.945 4.639 0.206 0.008 0.411-0.031 0.6-0.113s0.356-0.207 0.49-0.364c0.132-0.159 0.226-0.346 0.273-0.546s0.048-0.41 0.001-0.611c-0.076-0.318-0.115-0.644-0.116-0.971 0.001-1.141 0.455-2.234 1.261-3.041s1.9-1.26 3.041-1.261c0.587-0.002 1.168 0.119 1.706 0.353s1.022 0.577 1.421 1.008c0.154 0.165 0.347 0.289 0.562 0.358s0.444 0.083 0.666 0.039c0.548-0.107 1.087-0.25 1.616-0.43-0.36 0.737-0.821 1.421-1.369 2.032z"></path>
</symbol>
<symbol id="icon-ufacebook" viewBox="0 0 33 32">
<path d="M20.827 7.093h2.507v-4.24c-1.214-0.126-2.433-0.188-3.653-0.187-3.627 0-6.107 2.213-6.107 6.267v3.493h-4.093v4.747h4.093v12.16h4.907v-12.16h4.080l0.613-4.747h-4.693v-3.027c0-1.4 0.373-2.307 2.347-2.307z"></path>
</symbol>
</defs>
</svg>
